# xmcd
#
# Track frame offsets:
#	150
#	17178
#	29415
#	48203
#	63398
#	76168
#	89190
#	107603
#	121723
#	134635
#	149485
#	164285
#	182663
#	195268
#	209160
#	224453
#	243530
#	255208
#	267163
#	282520
#	298613
#	312808
#
# Disc length: 4405 seconds
#
# Revision: 1
# Processed by: cddbd v1.5.2PL0 Copyright (c) Steve Scherf et al.
# Submitted via: EasyCDDAExtractor 11.1.0.1
#
DISCID=4c113316
DTITLE=Various Artist - Chart Breakers Cgc-504
DYEAR=0000
DGENRE=Country
TTITLE0=Lorrie Morgan  - Half Enough
TTITLE1=Martina Mcbride - My Baby Loves Me
TTITLE2=Vince Gill - No Future In The Past
TTITLE3=Confederate Railroad - Trashy Women
TTITLE4=Sammy Kershaw - Haunted Heart
TTITLE5=Tracy Lawrence - Can't Break It To My Heart
TTITLE6=John Michael Montgomery - I Love The Way You Love Me
TTITLE7=Alabama - High Cotton
TTITLE8=Clint Black - Killin' Time
TTITLE9=Mary-Chapin Carpenter - I Feel Lucky
TTITLE10=Diamond Rio - Meet Me In The Middle
TTITLE11=Vince Gill - Look At Us
TTITLE12=Alan Jackson - Dallas
TTITLE13=Patty Loveless - Hurt Me Bad (In A Real Good Way)
TTITLE14=Kathy Mattea - Eighteen Wheels And A Dozen Roses
TTITLE15=K T Oslin - I'll Always Come Back
TTITLE16=Dolly Parton - Why'd You Come In Here Lookin' Like That
TTITLE17=Collin Raye - I Want You Bad (And That Ain't Good)
TTITLE18=Sawyer Brown - All These Years
TTITLE19=Travis Tritt and Marty Stuart - This One's Gonna Hurt You (For A Long, 
TTITLE19=Long Time)
TTITLE20=Steve Wariner - Lynda
TTITLE21=Dwight Yoakam - You're The One
EXTD=YEAR: 0000
EXTT0=
EXTT1=
EXTT2=
EXTT3=
EXTT4=
EXTT5=
EXTT6=
EXTT7=
EXTT8=
EXTT9=
EXTT10=
EXTT11=
EXTT12=
EXTT13=
EXTT14=
EXTT15=
EXTT16=
EXTT17=
EXTT18=
EXTT19=
EXTT20=
EXTT21=
PLAYORDER=
